<svg xmlns="http://www.w3.org/2000/svg" version="1.1" xmlns:xlink="http://www.w3.org/1999/xlink" xmlns:svgjs="http://svgjs.dev/svgjs" width="100%" height="100%" viewBox="0 0 1000 600"><rect width="1000" height="600" x="0" y="0" fill="white"/><g><rect width="333.3333333333333" height="333.3333333333333" rx="13.333333333333334" ry="13.333333333333334" y="252.3307755216258" fill="white" transform="matrix(0.5432218275769649,0,0,0.543221827576965,0,72.39143213539127)" x="230.10845947265625"/><path d="MNaN 418.9974460629868 " fill="maroon" transform="matrix(0.5432218275769649,0,0,0.543221827576965,0,72.39143213539127)"/><path d="M660.183815980635 482.8272337802704L660.183815980635 379.7465604862061L672.9497733698806 379.7465604862061L672.9497733698806 474.8485104119919Q672.9497733698806 483.4699642738262 668.6501279991973 488.7226238246095Q664.3283195080464 493.99744649586023 655.0862982731238 493.99744649586023L655.0862982731238 493.99744649586023L646.7751280978338 493.99744649586023L646.7751280978338 482.8272337802704L660.183815980635 482.8272337802704ZM666.5667946752578 360.44248255906564L666.5667946752578 360.44248255906564Q662.4222911478465 360.44248255906564 660.5827521490489 358.447801716996Q658.7432131502514 356.4531208749264 658.7432131502514 353.261631527615L658.7432131502514 353.261631527615L658.7432131502514 351.17829820367564Q658.7432131502514 347.9868088563643 660.5827521490489 345.9921280142946Q662.4222911478465 343.997447172225 666.5667946752578 343.997447172225L666.5667946752578 343.997447172225Q670.7112982026692 343.997447172225 672.5508372014667 345.9921280142946Q674.3903762002642 347.9868088563643 674.3903762002642 351.17829820367564L674.3903762002642 351.17829820367564L674.3903762002642 353.261631527615Q674.3903762002642 356.4531208749264 672.5508372014667 358.447801716996Q670.7112982026692 360.44248255906564 666.5667946752578 360.44248255906564ZM712.843390211273 462.08255302274637L700.0774328220275 462.08255302274637L700.0774328220275 379.7465604862061L712.843390211273 379.7465604862061L712.843390211273 393.1552483690074L713.4861207048287 393.1552483690074Q716.5224682088681 386.12953918082883 722.0189220847933 381.9850356534175Q727.5153759607184 377.8183690055387 736.7795603161085 377.8183690055387L736.7795603161085 377.8183690055387Q749.545517705354 377.8183690055387 756.9701630619464 386.04088669895907Q764.3948084185389 394.26340439237936 764.3948084185389 409.26783694883636L764.3948084185389 409.26783694883636L764.3948084185389 462.08255302274637L751.6288510292934 462.08255302274637L751.6288510292934 411.50631211604787Q751.6288510292934 389.32102852814023 732.9453404752412 389.32102852814023L732.9453404752412 389.32102852814023Q729.1111206343741 389.32102852814023 725.5206951186487 390.27404270824013Q721.9302696029234 391.2270568883401 719.0712270626236 393.1552483690074Q716.1900214018565 395.06127672920724 714.5277873667984 398.00897175137675Q712.843390211273 400.9566667735463 712.843390211273 404.94602845768554L712.843390211273 404.94602845768554L712.843390211273 462.08255302274637ZM857.745871827397 462.08255302274637L850.5650207959463 462.08255302274637Q843.3841697644957 462.08255302274637 840.2591697785866 458.2483331818792Q837.156332913145 454.41411334101207 836.3584605763172 448.67386513994506L836.3584605763172 448.67386513994506L835.5605882394893 448.67386513994506Q832.8345244219943 456.34230482167936 826.628850691111 460.1765246625465Q820.4010138397603 463.9885813829462 811.779559977926 463.9885813829462L811.779559977926 463.9885813829462Q798.7033189021363 463.9885813829462 791.4338153888159 457.2953190017793Q784.1643118754955 450.60205662061236 784.1643118754955 439.0993970980109L784.1643118754955 439.0993970980109Q784.1643118754955 427.46375885260477 792.7192763759274 421.2359220012541Q801.252077755892 415.0080851499034 819.2706946959208 415.0080851499034L819.2706946959208 415.0080851499034L835.5605882394893 415.0080851499034L835.5605882394893 406.87421993835284Q835.5605882394893 398.0976242332465 830.7733542185223 393.46553205555153Q825.9861201975552 388.83343987785656 816.0792053486094 388.83343987785656L816.0792053486094 388.83343987785656Q808.5880706306147 388.83343987785656 803.5570422845058 392.18007106844Q798.5260139383968 395.5488653794909 795.1793827478133 401.13397173728583L795.1793827478133 401.13397173728583L787.5331061865464 393.9531207058352Q790.8797373771299 387.2376952042008 798.2157302518526 382.5391136651035Q805.5517231265753 377.8183690055387 816.7219358421652 377.8183690055387L816.7219358421652 377.8183690055387Q831.7263683986222 377.8183690055387 840.0153754534449 385.1765250007289Q848.326545628735 392.51251787545164 848.326545628735 405.58875895124135L848.326545628735 405.58875895124135L848.326545628735 450.9123403071565L857.745871827397 450.9123403071565L857.745871827397 462.08255302274637ZM813.8628933018654 453.15081547436796L813.8628933018654 453.15081547436796Q818.6501273228325 453.15081547436796 822.6394890069716 452.02049633052854Q826.628850691111 450.9123403071565 829.4878932314108 448.82900698321714Q832.3690988921779 446.7678367797452 833.9648435658337 444.0417729622501Q835.5605882394893 441.33787226522236 835.5605882394893 438.14638291791096L835.5605882394893 438.14638291791096L835.5605882394893 424.5825531918376L818.6501273228325 424.5825531918376Q807.6350564505146 424.5825531918376 802.6040281044058 427.7740425391489Q797.5729997582969 430.9655318864603 797.5729997582969 437.038226894539L797.5729997582969 437.038226894539L797.5729997582969 440.38485808512246Q797.5729997582969 446.4353899727336 801.96129761085 449.8041842837845Q806.3495954634031 453.15081547436796 813.8628933018654 453.15081547436796ZM875.9196306106979 493.99744649586023L875.9196306106979 379.7465604862061L888.6855879999434 379.7465604862061L888.6855879999434 393.1552483690074L889.3283184934993 393.1552483690074Q892.5198078408107 385.331666844001 898.6589922102916 381.5860994850036Q904.82033970024 377.8183690055387 913.4196304416067 377.8183690055387L913.4196304416067 377.8183690055387Q921.0880701233411 377.8183690055387 927.3159069746918 380.85471650957805Q933.5437438260425 383.8910640136174 937.9320416785956 389.4761703714123Q942.3203395311488 395.06127672920724 944.6253040597626 403.0400000974857Q946.9302685883763 411.0187234657642 946.9302685883763 420.9034751942425L946.9302685883763 420.9034751942425Q946.9302685883763 430.81039004318825 944.6253040597626 438.7891134114667Q942.3203395311488 446.7678367797452 937.9320416785956 452.35294313754014Q933.5437438260425 457.93804949533506 927.3159069746918 460.97439699937433Q921.0880701233411 463.9885813829462 913.4196304416067 463.9885813829462L913.4196304416067 463.9885813829462Q896.664311368222 463.9885813829462 889.3283184934993 448.67386513994506L889.3283184934993 448.67386513994506L888.6855879999434 448.67386513994506L888.6855879999434 493.99744649586023L875.9196306106979 493.99744649586023ZM909.9178574077512 452.5080849808122L909.9178574077512 452.5080849808122Q920.777786436797 452.5080849808122 926.9834601676802 445.7261701177755Q933.2112970190309 438.94425525473883 933.2112970190309 427.92918438242106L933.2112970190309 427.92918438242106L933.2112970190309 413.8999291265314Q933.2112970190309 402.8848582542136 926.9834601676802 396.10294339117695Q920.777786436797 389.32102852814023 909.9178574077512 389.32102852814023L909.9178574077512 389.32102852814023Q905.6182120370678 389.32102852814023 901.6953397143309 390.51783703338197Q897.7946305120614 391.71464553862376 894.9134248512942 393.7758157420957Q892.0543823109944 395.85914906603506 890.369985155469 398.8068440882046Q888.6855879999434 401.75453911037414 888.6855879999434 405.12333342142506L888.6855879999434 405.12333342142506L888.6855879999434 435.75276590742743Q888.6855879999434 439.74212759156666 890.369985155469 442.8449644570083Q892.0543823109944 445.9699644429174 894.9134248512942 448.1197871282591Q897.7946305120614 450.26960981360077 901.6953397143309 451.39992895744024Q905.6182120370678 452.5080849808122 909.9178574077512 452.5080849808122ZM999.5898428190142 463.9885813829462L999.5898428190142 463.9885813829462Q991.3008357641917 463.9885813829462 984.4302684192851 460.97439699937433Q977.5818641948462 457.93804949533506 972.7059776920094 452.2642906556704Q967.8522543096399 446.6126949364731 965.1261904921448 438.70046092959694Q962.422289795117 430.81039004318825 962.422289795117 420.9034751942425L962.422289795117 420.9034751942425Q962.422289795117 411.1738653090363 965.1261904921448 403.19514194075776Q967.8522543096399 395.2164185724793 972.7059776920094 389.56482285328207Q977.5818641948462 383.8910640136174 984.4302684192851 380.85471650957805Q991.3008357641917 377.8183690055387 999.5898428190142 377.8183690055387L999.5898428190142 377.8183690055387Q1007.9010129943043 377.8183690055387 1014.6829278573409 380.85471650957805Q1021.4648427203776 383.8910640136174 1026.4072185846169 389.56482285328207Q1031.3495944488561 395.2164185724793 1034.0756582663512 403.19514194075776Q1036.7795589633788 411.1738653090363 1036.7795589633788 420.9034751942425L1036.7795589633788 420.9034751942425Q1036.7795589633788 430.81039004318825 1034.0756582663512 438.70046092959694Q1031.3495944488561 446.6126949364731 1026.4072185846169 452.2642906556704Q1021.4648427203776 457.93804949533506 1014.6829278573409 460.97439699937433Q1007.9010129943043 463.9885813829462 999.5898428190142 463.9885813829462ZM999.5898428190142 452.6632268240843L999.5898428190142 452.6632268240843Q1009.9621831977763 452.6632268240843 1016.5224668561386 446.28024812946154Q1023.0605873940334 439.89726943483873 1023.0605873940334 426.821028359049L1023.0605873940334 426.821028359049L1023.0605873940334 415.0080851499034Q1023.0605873940334 401.9318440741137 1016.5224668561386 395.5488653794909Q1009.9621831977763 389.16588668486816 999.5898428190142 389.16588668486816L999.5898428190142 389.16588668486816Q989.2175024402522 389.16588668486816 982.6793819023574 395.5488653794909Q976.1412613644625 401.9318440741137 976.1412613644625 415.0080851499034L976.1412613644625 415.0080851499034L976.1412613644625 426.821028359049Q976.1412613644625 439.89726943483873 982.6793819023574 446.28024812946154Q989.2175024402522 452.6632268240843 999.5898428190142 452.6632268240843ZM1082.74587081285 462.08255302274637L1071.3983531335205 462.08255302274637Q1064.7050907523535 462.08255302274637 1061.2698070799004 458.336985663749Q1057.834523407447 454.5914183047516 1057.834523407447 448.82900698321714L1057.834523407447 448.82900698321714L1057.834523407447 343.997447172225L1070.6004807966926 343.997447172225L1070.6004807966926 450.9123403071565L1082.74587081285 450.9123403071565L1082.74587081285 462.08255302274637ZM1107.6350550977852 360.44248255906564L1107.6350550977852 360.44248255906564Q1103.4905515703738 360.44248255906564 1101.6510125715763 358.447801716996Q1099.8114735727788 356.4531208749264 1099.8114735727788 353.261631527615L1099.8114735727788 353.261631527615L1099.8114735727788 351.17829820367564Q1099.8114735727788 347.9868088563643 1101.6510125715763 345.9921280142946Q1103.4905515703738 343.997447172225 1107.6350550977852 343.997447172225L1107.6350550977852 343.997447172225Q1111.7795586251964 343.997447172225 1113.619097623994 345.9921280142946Q1115.4586366227916 347.9868088563643 1115.4586366227916 351.17829820367564L1115.4586366227916 351.17829820367564L1115.4586366227916 353.261631527615Q1115.4586366227916 356.4531208749264 1113.619097623994 358.447801716996Q1111.7795586251964 360.44248255906564 1107.6350550977852 360.44248255906564ZM1101.2520764031624 462.08255302274637L1101.2520764031624 379.7465604862061L1114.018033792408 379.7465604862061L1114.018033792408 462.08255302274637L1101.2520764031624 462.08255302274637ZM1175.29906188488 462.08255302274637L1159.3416151483232 462.08255302274637Q1152.6261896466888 462.08255302274637 1149.1909059742356 458.336985663749Q1145.7777854222497 454.5914183047516 1145.7777854222497 448.518723296673L1145.7777854222497 448.518723296673L1145.7777854222497 390.91677320179593L1132.2139556961765 390.91677320179593L1132.2139556961765 379.7465604862061L1139.8602322574434 379.7465604862061Q1144.0047357848546 379.7465604862061 1145.533991097108 378.0621633306806Q1147.0410832888938 376.3999292956226 1147.0410832888938 372.2332626477438L1147.0410832888938 372.2332626477438L1147.0410832888938 356.91854640474264L1158.5437428114953 356.91854640474264L1158.5437428114953 379.7465604862061L1176.5623597515241 379.7465604862061L1176.5623597515241 390.91677320179593L1158.5437428114953 390.91677320179593L1158.5437428114953 450.9123403071565L1175.29906188488 450.9123403071565L1175.29906188488 462.08255302274637ZM1264.1731749593152 462.08255302274637L1256.9923239278646 462.08255302274637Q1249.8114728964142 462.08255302274637 1246.7086360309725 458.2483331818792Q1243.5836360450635 454.41411334101207 1242.7857637082357 448.67386513994506L1242.7857637082357 448.67386513994506L1241.9878913714078 448.67386513994506Q1239.2839906743802 456.34230482167936 1233.0561538230295 460.1765246625465Q1226.8283169716788 463.9885813829462 1218.2068631098443 463.9885813829462L1218.2068631098443 463.9885813829462Q1205.1306220340548 463.9885813829462 1197.8611185207342 457.2953190017793Q1190.6137781278812 450.60205662061236 1190.6137781278812 439.0993970980109L1190.6137781278812 439.0993970980109Q1190.6137781278812 427.46375885260477 1199.1465795078457 421.2359220012541Q1207.67938088781 415.0080851499034 1225.7201609483066 415.0080851499034L1225.7201609483066 415.0080851499034L1241.9878913714078 415.0080851499034L1241.9878913714078 406.87421993835284Q1241.9878913714078 398.0976242332465 1237.2006573504407 393.46553205555153Q1232.4134233294735 388.83343987785656 1222.5286716009953 388.83343987785656L1222.5286716009953 388.83343987785656Q1215.0153737625328 388.83343987785656 1210.0065085368915 392.18007106844Q1204.9754801907825 395.5488653794909 1201.628849000199 401.13397173728583L1201.628849000199 401.13397173728583L1193.9604093184648 393.9531207058352Q1197.3070405090484 387.2376952042008 1204.643033383771 382.5391136651035Q1212.001189378961 377.8183690055387 1223.171402094551 377.8183690055387L1223.171402094551 377.8183690055387Q1238.1536715305406 377.8183690055387 1246.4648417058306 385.1765250007289Q1254.7538487606532 392.51251787545164 1254.7538487606532 405.58875895124135L1254.7538487606532 405.58875895124135L1254.7538487606532 450.9123403071565L1264.1731749593152 450.9123403071565L1264.1731749593152 462.08255302274637ZM1220.2901964337836 453.15081547436796L1220.2901964337836 453.15081547436796Q1225.0774304547508 453.15081547436796 1229.0667921388902 452.02049633052854Q1233.0561538230295 450.9123403071565 1235.9373594837966 448.82900698321714Q1238.7964020240963 446.7678367797452 1240.3921466977522 444.0417729622501Q1241.9878913714078 441.33787226522236 1241.9878913714078 438.14638291791096L1241.9878913714078 438.14638291791096L1241.9878913714078 424.5825531918376L1225.0774304547508 424.5825531918376Q1214.0623595824331 424.5825531918376 1209.0313312363241 427.7740425391489Q1204.0224660106826 430.9655318864603 1204.0224660106826 437.038226894539L1204.0224660106826 437.038226894539L1204.0224660106826 440.38485808512246Q1204.0224660106826 446.4353899727336 1208.4107638632358 449.8041842837845Q1212.7990617157889 453.15081547436796 1220.2901964337836 453.15081547436796ZM1295.1350542523294 462.08255302274637L1282.3690968630838 462.08255302274637L1282.3690968630838 379.7465604862061L1295.1350542523294 379.7465604862061L1295.1350542523294 393.1552483690074L1295.777784745885 393.1552483690074Q1298.7919691294567 386.12953918082883 1304.3105861258496 381.9850356534175Q1309.8070400017748 377.8183690055387 1319.0712243571647 377.8183690055387L1319.0712243571647 377.8183690055387Q1331.8371817464101 377.8183690055387 1339.2618271030026 386.04088669895907Q1346.6643093391278 394.26340439237936 1346.6643093391278 409.26783694883636L1346.6643093391278 409.26783694883636L1346.6643093391278 462.08255302274637L1333.8983519498822 462.08255302274637L1333.8983519498822 411.50631211604787Q1333.8983519498822 389.32102852814023 1315.2370045162975 389.32102852814023L1315.2370045162975 389.32102852814023Q1311.4027846754304 389.32102852814023 1307.812359159705 390.27404270824013Q1304.2219336439798 391.2270568883401 1301.36289110368 393.1552483690074Q1298.4816854429127 395.06127672920724 1296.7972882873871 398.00897175137675Q1295.1350542523294 400.9566667735463 1295.1350542523294 404.94602845768554L1295.1350542523294 404.94602845768554L1295.1350542523294 462.08255302274637ZM1404.1111175907326 463.9885813829462L1404.1111175907326 463.9885813829462Q1395.82211053591 463.9885813829462 1388.9515431910036 460.97439699937433Q1382.1031389665648 457.93804949533506 1377.2272524637276 452.2642906556704Q1372.3735290813584 446.6126949364731 1369.6474652638633 438.70046092959694Q1366.9435645668357 430.81039004318825 1366.9435645668357 420.9034751942425L1366.9435645668357 420.9034751942425Q1366.9435645668357 411.1738653090363 1369.6474652638633 403.19514194075776Q1372.3735290813584 395.2164185724793 1377.2272524637276 389.56482285328207Q1382.1031389665648 383.8910640136174 1388.9515431910036 380.85471650957805Q1395.82211053591 377.8183690055387 1404.1111175907326 377.8183690055387L1404.1111175907326 377.8183690055387Q1412.4222877660227 377.8183690055387 1419.2042026290594 380.85471650957805Q1425.9861174920961 383.8910640136174 1430.9284933563354 389.56482285328207Q1435.8708692205746 395.2164185724793 1438.5969330380697 403.19514194075776Q1441.3008337350973 411.1738653090363 1441.3008337350973 420.9034751942425L1441.3008337350973 420.9034751942425Q1441.3008337350973 430.81039004318825 1438.5969330380697 438.70046092959694Q1435.8708692205746 446.6126949364731 1430.9284933563354 452.2642906556704Q1425.9861174920961 457.93804949533506 1419.2042026290594 460.97439699937433Q1412.4222877660227 463.9885813829462 1404.1111175907326 463.9885813829462ZM1404.1111175907326 452.6632268240843L1404.1111175907326 452.6632268240843Q1414.4834579694946 452.6632268240843 1421.0437416278571 446.28024812946154Q1427.581862165752 439.89726943483873 1427.581862165752 426.821028359049L1427.581862165752 426.821028359049L1427.581862165752 415.0080851499034Q1427.581862165752 401.9318440741137 1421.0437416278571 395.5488653794909Q1414.4834579694946 389.16588668486816 1404.1111175907326 389.16588668486816L1404.1111175907326 389.16588668486816Q1393.7387772119707 389.16588668486816 1387.2006566740758 395.5488653794909Q1380.662536136181 401.9318440741137 1380.662536136181 415.0080851499034L1380.662536136181 415.0080851499034L1380.662536136181 426.821028359049Q1380.662536136181 439.89726943483873 1387.2006566740758 446.28024812946154Q1393.7387772119707 452.6632268240843 1404.1111175907326 452.6632268240843ZM1467.3203371638722 463.9885813829462L1467.3203371638722 463.9885813829462Q1462.2006563358934 463.9885813829462 1459.8956918072797 461.4398225291906Q1457.5685641581983 458.891063675435 1457.5685641581983 454.74656014802366L1457.5685641581983 454.74656014802366L1457.5685641581983 452.6632268240843Q1457.5685641581983 448.518723296673 1459.8956918072797 445.9699644429174Q1462.2006563358934 443.42120558916173 1467.3203371638722 443.42120558916173L1467.3203371638722 443.42120558916173Q1472.4178548713835 443.42120558916173 1474.7228193999972 445.9699644429174Q1477.0499470490784 448.518723296673 1477.0499470490784 452.6632268240843L1477.0499470490784 452.6632268240843L1477.0499470490784 454.74656014802366Q1477.0499470490784 458.891063675435 1474.7228193999972 461.4398225291906Q1472.4178548713835 463.9885813829462 1467.3203371638722 463.9885813829462ZM1508.9648405221922 360.44248255906564L1508.9648405221922 360.44248255906564Q1504.8203369947812 360.44248255906564 1502.9807979959835 358.447801716996Q1501.1412589971858 356.4531208749264 1501.1412589971858 353.261631527615L1501.1412589971858 353.261631527615L1501.1412589971858 351.17829820367564Q1501.1412589971858 347.9868088563643 1502.9807979959835 345.9921280142946Q1504.8203369947812 343.997447172225 1508.9648405221922 343.997447172225L1508.9648405221922 343.997447172225Q1513.1093440496036 343.997447172225 1514.9488830484013 345.9921280142946Q1516.7884220471985 347.9868088563643 1516.7884220471985 351.17829820367564L1516.7884220471985 351.17829820367564L1516.7884220471985 353.261631527615Q1516.7884220471985 356.4531208749264 1514.9488830484013 358.447801716996Q1513.1093440496036 360.44248255906564 1508.9648405221922 360.44248255906564ZM1502.5818618275696 462.08255302274637L1502.5818618275696 379.7465604862061L1515.3478192168152 379.7465604862061L1515.3478192168152 462.08255302274637L1502.5818618275696 462.08255302274637ZM1573.592499805248 463.9885813829462L1573.592499805248 463.9885813829462Q1565.281329629958 463.9885813829462 1558.432925405519 460.97439699937433Q1551.5623580606123 457.93804949533506 1546.7086346782428 452.2642906556704Q1541.832748175406 446.6126949364731 1539.1288474783785 438.70046092959694Q1536.4027836608832 430.81039004318825 1536.4027836608832 420.9034751942425L1536.4027836608832 420.9034751942425Q1536.4027836608832 411.1738653090363 1539.1288474783785 403.19514194075776Q1541.832748175406 395.2164185724793 1546.7086346782428 389.56482285328207Q1551.5623580606123 383.8910640136174 1558.432925405519 380.85471650957805Q1565.281329629958 377.8183690055387 1573.592499805248 377.8183690055387L1573.592499805248 377.8183690055387Q1581.8815068600707 377.8183690055387 1588.6634217231074 380.85471650957805Q1595.4453365861439 383.8910640136174 1600.387712450383 389.56482285328207Q1605.3522514350896 395.2164185724793 1608.0561521321174 403.19514194075776Q1610.760052829145 411.1738653090363 1610.760052829145 420.9034751942425L1610.760052829145 420.9034751942425Q1610.760052829145 430.81039004318825 1608.0561521321174 438.70046092959694Q1605.3522514350896 446.6126949364731 1600.387712450383 452.2642906556704Q1595.4453365861439 457.93804949533506 1588.6634217231074 460.97439699937433Q1581.8815068600707 463.9885813829462 1573.592499805248 463.9885813829462ZM1573.592499805248 452.6632268240843L1573.592499805248 452.6632268240843Q1583.96484018401 452.6632268240843 1590.5029607219046 446.28024812946154Q1597.0410812597995 439.89726943483873 1597.0410812597995 426.821028359049L1597.0410812597995 426.821028359049L1597.0410812597995 415.0080851499034Q1597.0410812597995 401.9318440741137 1590.5029607219046 395.5488653794909Q1583.96484018401 389.16588668486816 1573.592499805248 389.16588668486816L1573.592499805248 389.16588668486816Q1563.220159426486 389.16588668486816 1556.682038888591 395.5488653794909Q1550.121755230229 401.9318440741137 1550.121755230229 415.0080851499034L1550.121755230229 415.0080851499034L1550.121755230229 426.821028359049Q1550.121755230229 439.89726943483873 1556.682038888591 446.28024812946154Q1563.220159426486 452.6632268240843 1573.592499805248 452.6632268240843Z " fill="maroon" transform="matrix(0.5432218275769649,0,0,0.543221827576965,0,72.39143213539127)"/></g></svg>